<?xml version="1.0" encoding="UTF-8"?>
<!DOCTYPE svg PUBLIC "-//W3C//DTD SVG 1.1//EN" "http://www.w3.org/Graphics/SVG/1.1/DTD/svg11.dtd">
<svg version="1.1" xmlns="http://www.w3.org/2000/svg" xmlns:xlink="http://www.w3.org/1999/xlink" width="512" height="512"  xml:space="preserve" id="dLogo">
    <!-- Generated by PaintCode (www.paintcodeapp.com) -->
    <rect id="dLogo-rectangle" stroke="none" fill="rgb(41, 128, 185)" x="0.34" y="1" width="513.29" height="510.85" />
    <path id="dLogo-text" stroke="rgb(251, 250, 253)" stroke-width="8" stroke-miterlimit="10" fill="rgb(251, 250, 253)" d="M 94.07,452.73 L 94.07,59.76 263.21,59.76 C 324.1,59.76 370.75,75.91 403.14,108.22 435.54,140.52 451.73,187.12 451.73,248.01 451.73,312.8 434.56,363.12 400.22,398.96 365.88,434.81 317.82,452.73 256.04,452.73 L 94.07,452.73 Z M 175.85,396.97 L 236.92,396.97 C 279.94,396.97 312.02,385.07 333.18,361.26 354.33,337.45 364.91,301.29 364.91,252.79 364.91,215.27 356.41,184.02 339.42,159.06 327.73,141.89 313.66,130.03 297.2,123.48 280.74,116.93 256.75,113.66 225.24,113.66 L 175.85,113.66 175.85,396.97 Z M 175.85,396.97" />
</svg>
