<?xml version="1.0" encoding="UTF-8"?>
<!DOCTYPE svg PUBLIC "-//W3C//DTD SVG 1.1//EN" "http://www.w3.org/Graphics/SVG/1.1/DTD/svg11.dtd">
<svg version="1.1" xmlns="http://www.w3.org/2000/svg" xmlns:xlink="http://www.w3.org/1999/xlink" width="161" height="25"  xml:space="preserve" id="dNavLogo">
    <!-- Generated by PaintCode (www.paintcodeapp.com) -->
    <rect id="dNavLogo-rectangle" stroke="none" fill="rgb(41, 128, 185)" x="0.82" y="1.28" width="23" height="23" rx="5" />
    <path id="dNavLogo-text" stroke="rgb(251, 250, 253)" stroke-width="0" stroke-miterlimit="10" fill="rgb(251, 250, 253)" d="M 6.48,19.24 L 6.48,5.98 12.45,5.98 C 14.59,5.98 16.24,6.53 17.38,7.62 18.52,8.71 19.09,10.28 19.09,12.33 19.09,14.52 18.49,16.22 17.27,17.43 16.06,18.64 14.37,19.24 12.19,19.24 L 6.48,19.24 Z M 9.37,17.36 L 11.52,17.36 C 13.03,17.36 14.17,16.96 14.91,16.15 15.66,15.35 16.03,14.13 16.03,12.5 16.03,11.23 15.73,10.18 15.13,9.33 14.72,8.75 14.22,8.35 13.64,8.13 13.06,7.91 12.22,7.8 11.11,7.8 L 9.37,7.8 9.37,17.36 Z M 9.37,17.36" />
    <path id="dNavLogo-text3" stroke="none" fill="rgb(41, 128, 185)" d="M 29.53,19.75 L 29.53,4.51 34.98,4.51 C 36.95,4.51 38.45,5.13 39.5,6.39 40.54,7.64 41.06,9.45 41.06,11.81 41.06,14.32 40.51,16.28 39.4,17.67 38.29,19.06 36.74,19.75 34.75,19.75 L 29.53,19.75 Z M 32.16,17.59 L 34.13,17.59 C 35.52,17.59 36.56,17.13 37.24,16.2 37.92,15.28 38.26,13.88 38.26,12 38.26,10.54 37.99,9.33 37.44,8.36 37.06,7.69 36.61,7.23 36.08,6.98 35.55,6.72 34.77,6.6 33.76,6.6 L 32.16,6.6 32.16,17.59 Z M 43.43,19.75 L 43.43,8.44 45.97,8.44 45.97,10.57 C 46.63,8.98 47.63,8.18 48.97,8.18 49.13,8.18 49.28,8.2 49.44,8.25 L 49.44,10.97 C 49.08,10.81 48.74,10.73 48.44,10.73 47.43,10.73 46.6,11.34 45.97,12.57 L 45.97,19.75 43.43,19.75 Z M 57.22,19.75 L 57.22,17.62 C 56.4,19.21 55.33,20.01 54.02,20.01 53.18,20.01 52.52,19.69 52.03,19.05 51.55,18.41 51.31,17.54 51.31,16.44 L 51.31,8.44 53.84,8.44 53.84,15.68 C 53.84,16.97 54.2,17.61 54.91,17.61 55.71,17.61 56.48,16.93 57.22,15.56 L 57.22,8.44 59.76,8.44 59.76,19.75 57.22,19.75 Z M 68.84,19.75 L 68.84,17.62 C 68.19,19.21 67.17,20.01 65.77,20.01 64.64,20.01 63.75,19.51 63.11,18.52 62.46,17.52 62.14,16.15 62.14,14.41 62.14,12.51 62.5,11 63.23,9.87 63.96,8.75 64.94,8.18 66.16,8.18 67.15,8.18 68.04,8.65 68.84,9.58 L 68.84,3.49 71.39,3.49 71.39,19.75 68.84,19.75 Z M 68.84,11.4 C 68.23,10.57 67.58,10.16 66.88,10.16 66.26,10.16 65.76,10.52 65.39,11.24 65.02,11.96 64.84,12.93 64.84,14.15 64.84,16.46 65.45,17.62 66.69,17.62 67.44,17.62 68.16,17.04 68.84,15.88 L 68.84,11.4 Z M 74.62,23.27 L 74.82,21.05 C 75.87,21.63 76.86,21.92 77.81,21.92 78.75,21.92 79.42,21.68 79.84,21.2 80.26,20.72 80.47,19.94 80.47,18.86 L 80.47,17.31 C 79.85,18.94 78.83,19.75 77.41,19.75 76.29,19.75 75.4,19.25 74.75,18.24 74.09,17.24 73.76,15.88 73.76,14.16 73.76,12.35 74.13,10.91 74.87,9.82 75.6,8.73 76.58,8.18 77.8,8.18 78.76,8.18 79.65,8.65 80.47,9.58 L 80.73,8.44 83.01,8.44 83.01,17.07 C 83.01,18.8 82.92,20.04 82.75,20.8 82.57,21.57 82.24,22.22 81.73,22.75 80.89,23.63 79.7,24.07 78.16,24.07 77.07,24.07 75.89,23.8 74.62,23.27 Z M 80.47,15.54 L 80.47,11.37 C 79.86,10.54 79.22,10.12 78.55,10.12 77.91,10.12 77.4,10.47 77.02,11.17 76.65,11.87 76.46,12.81 76.46,13.99 76.46,16.21 77.05,17.31 78.23,17.31 79.05,17.31 79.79,16.72 80.47,15.54 Z M 93.77,19.37 C 92.57,19.8 91.43,20.01 90.35,20.01 88.78,20.01 87.54,19.48 86.63,18.4 85.72,17.33 85.27,15.87 85.27,14.01 85.27,12.26 85.69,10.85 86.52,9.79 87.35,8.72 88.45,8.18 89.81,8.18 91.19,8.18 92.19,8.71 92.82,9.75 93.46,10.79 93.77,12.45 93.77,14.71 L 87.94,14.71 C 88.11,16.86 89.1,17.94 90.9,17.94 91.75,17.94 92.71,17.7 93.77,17.23 L 93.77,19.37 Z M 87.91,12.98 L 91.28,12.98 C 91.28,11.05 90.77,10.09 89.73,10.09 88.68,10.09 88.07,11.05 87.91,12.98 Z M 98.99,19.75 L 98.99,4.51 103.74,4.51 C 106.31,4.51 107.6,5.77 107.6,8.29 107.6,9.23 107.38,10.08 106.94,10.86 106.51,11.63 105.9,12.22 105.14,12.63 L 109.28,19.75 106.07,19.75 102.93,13.52 101.47,13.52 101.47,19.75 98.99,19.75 Z M 101.47,11.43 L 102.08,11.43 C 103.99,11.43 104.95,10.5 104.95,8.64 104.95,7.28 104.1,6.6 102.39,6.6 L 101.47,6.6 101.47,11.43 Z M 118.75,19.37 C 117.54,19.8 116.4,20.01 115.32,20.01 113.75,20.01 112.51,19.48 111.61,18.4 110.7,17.33 110.24,15.87 110.24,14.01 110.24,12.26 110.66,10.85 111.49,9.79 112.32,8.72 113.42,8.18 114.78,8.18 116.16,8.18 117.16,8.71 117.8,9.75 118.43,10.79 118.75,12.45 118.75,14.71 L 112.92,14.71 C 113.09,16.86 114.07,17.94 115.87,17.94 116.72,17.94 117.68,17.7 118.75,17.23 L 118.75,19.37 Z M 112.88,12.98 L 116.26,12.98 C 116.26,11.05 115.74,10.09 114.71,10.09 113.66,10.09 113.05,11.05 112.88,12.98 Z M 125.98,18.54 C 125.13,19.52 124.23,20.01 123.26,20.01 122.44,20.01 121.77,19.71 121.26,19.1 120.74,18.5 120.49,17.72 120.49,16.76 120.49,15.51 120.9,14.54 121.73,13.87 122.56,13.19 123.75,12.85 125.3,12.85 L 125.98,12.85 125.98,11.82 C 125.98,10.65 125.42,10.06 124.31,10.06 123.32,10.06 122.32,10.4 121.31,11.07 L 121.31,8.97 C 122.46,8.44 123.59,8.18 124.72,8.18 127.18,8.18 128.41,9.36 128.41,11.72 L 128.41,16.72 C 128.41,17.61 128.65,18.05 129.12,18.05 129.2,18.05 129.32,18.04 129.45,18.01 L 129.51,19.72 C 128.98,19.91 128.5,20.01 128.09,20.01 127.05,20.01 126.38,19.52 126.09,18.54 L 125.98,18.54 Z M 125.98,16.9 L 125.98,14.6 125.38,14.6 C 123.74,14.6 122.92,15.22 122.92,16.46 122.92,16.88 123.04,17.23 123.27,17.51 123.51,17.8 123.8,17.94 124.15,17.94 124.75,17.94 125.35,17.59 125.98,16.9 Z M 137.6,19.75 L 137.6,17.62 C 136.95,19.21 135.92,20.01 134.52,20.01 133.39,20.01 132.5,19.51 131.86,18.52 131.21,17.52 130.89,16.15 130.89,14.41 130.89,12.51 131.26,11 131.98,9.87 132.71,8.75 133.69,8.18 134.92,8.18 135.9,8.18 136.79,8.65 137.6,9.58 L 137.6,3.49 140.14,3.49 140.14,19.75 137.6,19.75 Z M 137.6,11.4 C 136.99,10.57 136.33,10.16 135.64,10.16 135.01,10.16 134.52,10.52 134.15,11.24 133.78,11.96 133.59,12.93 133.59,14.15 133.59,16.46 134.21,17.62 135.44,17.62 136.19,17.62 136.91,17.04 137.6,15.88 L 137.6,11.4 Z M 150.96,19.37 C 149.75,19.8 148.61,20.01 147.53,20.01 145.96,20.01 144.72,19.48 143.82,18.4 142.91,17.33 142.45,15.87 142.45,14.01 142.45,12.26 142.87,10.85 143.7,9.79 144.53,8.72 145.63,8.18 146.99,8.18 148.37,8.18 149.37,8.71 150.01,9.75 150.64,10.79 150.96,12.45 150.96,14.71 L 145.13,14.71 C 145.3,16.86 146.28,17.94 148.08,17.94 148.93,17.94 149.89,17.7 150.96,17.23 L 150.96,19.37 Z M 145.09,12.98 L 148.47,12.98 C 148.47,11.05 147.95,10.09 146.92,10.09 145.87,10.09 145.26,11.05 145.09,12.98 Z M 153.58,19.75 L 153.58,8.44 156.11,8.44 156.11,10.57 C 156.77,8.98 157.77,8.18 159.11,8.18 159.27,8.18 159.43,8.2 159.58,8.25 L 159.58,10.97 C 159.22,10.81 158.89,10.73 158.58,10.73 157.57,10.73 156.75,11.34 156.11,12.57 L 156.11,19.75 153.58,19.75 Z M 153.58,19.75" />
</svg>
