<?xml version="1.0" encoding="UTF-8"?>
<!DOCTYPE svg PUBLIC "-//W3C//DTD SVG 1.1//EN" "http://www.w3.org/Graphics/SVG/1.1/DTD/svg11.dtd">
<svg version="1.1" xmlns="http://www.w3.org/2000/svg" xmlns:xlink="http://www.w3.org/1999/xlink" width="161" height="25"  xml:space="preserve" id="dNavLogo">
    <!-- Generated by PaintCode (www.paintcodeapp.com) -->
    <path id="dNavLogo-text3" stroke="none" fill="rgb(41, 128, 185)" d="M 12.04,19.2 L 12.04,3.95 17.5,3.95 C 19.46,3.95 20.97,4.58 22.01,5.83 23.06,7.08 23.58,8.89 23.58,11.25 23.58,13.77 23.03,15.72 21.92,17.11 20.81,18.5 19.26,19.2 17.27,19.2 L 12.04,19.2 Z M 14.68,17.03 L 16.65,17.03 C 18.04,17.03 19.07,16.57 19.76,15.65 20.44,14.72 20.78,13.32 20.78,11.44 20.78,9.98 20.51,8.77 19.96,7.8 19.58,7.14 19.13,6.68 18.6,6.42 18.07,6.17 17.29,6.04 16.28,6.04 L 14.68,6.04 14.68,17.03 Z M 25.95,19.2 L 25.95,7.89 28.49,7.89 28.49,10.02 C 29.14,8.42 30.14,7.63 31.49,7.63 31.65,7.63 31.8,7.65 31.96,7.69 L 31.96,10.41 C 31.6,10.25 31.26,10.17 30.95,10.17 29.94,10.17 29.12,10.79 28.49,12.02 L 28.49,19.2 25.95,19.2 Z M 39.74,19.2 L 39.74,17.07 C 38.92,18.66 37.85,19.46 36.54,19.46 35.7,19.46 35.04,19.14 34.55,18.5 34.07,17.86 33.82,16.99 33.82,15.88 L 33.82,7.89 36.36,7.89 36.36,15.13 C 36.36,16.41 36.72,17.05 37.43,17.05 38.23,17.05 39,16.37 39.74,15 L 39.74,7.89 42.28,7.89 42.28,19.2 39.74,19.2 Z M 51.36,19.2 L 51.36,17.07 C 50.71,18.66 49.69,19.46 48.29,19.46 47.16,19.46 46.27,18.96 45.63,17.96 44.98,16.97 44.66,15.6 44.66,13.85 44.66,11.95 45.02,10.44 45.75,9.32 46.48,8.19 47.45,7.63 48.68,7.63 49.66,7.63 50.56,8.09 51.36,9.03 L 51.36,2.93 53.91,2.93 53.91,19.2 51.36,19.2 Z M 51.36,10.84 C 50.75,10.02 50.1,9.61 49.4,9.61 48.78,9.61 48.28,9.97 47.91,10.69 47.54,11.41 47.36,12.38 47.36,13.59 47.36,15.91 47.97,17.07 49.2,17.07 49.96,17.07 50.68,16.48 51.36,15.32 L 51.36,10.84 Z M 57.14,22.71 L 57.34,20.5 C 58.39,21.07 59.38,21.36 60.33,21.36 61.27,21.36 61.94,21.12 62.36,20.64 62.78,20.16 62.98,19.38 62.98,18.3 L 62.98,16.76 C 62.37,18.38 61.35,19.2 59.93,19.2 58.81,19.2 57.92,18.69 57.26,17.69 56.61,16.68 56.28,15.32 56.28,13.6 56.28,11.8 56.65,10.35 57.38,9.26 58.12,8.17 59.1,7.63 60.32,7.63 61.28,7.63 62.17,8.09 62.98,9.03 L 63.25,7.89 65.53,7.89 65.53,16.52 C 65.53,18.24 65.44,19.49 65.27,20.25 65.09,21.01 64.75,21.66 64.25,22.2 63.41,23.08 62.22,23.51 60.68,23.51 59.59,23.51 58.41,23.25 57.14,22.71 Z M 62.98,14.98 L 62.98,10.81 C 62.37,9.98 61.73,9.56 61.07,9.56 60.43,9.56 59.92,9.91 59.54,10.62 59.17,11.32 58.98,12.26 58.98,13.44 58.98,15.65 59.57,16.76 60.75,16.76 61.57,16.76 62.31,16.17 62.98,14.98 Z M 76.29,18.82 C 75.09,19.24 73.95,19.46 72.87,19.46 71.3,19.46 70.06,18.92 69.15,17.85 68.24,16.78 67.79,15.31 67.79,13.46 67.79,11.71 68.2,10.3 69.04,9.23 69.87,8.16 70.96,7.63 72.33,7.63 73.7,7.63 74.71,8.15 75.34,9.19 75.98,10.24 76.29,11.89 76.29,14.15 L 70.46,14.15 C 70.63,16.31 71.62,17.38 73.42,17.38 74.27,17.38 75.23,17.15 76.29,16.67 L 76.29,18.82 Z M 70.43,12.43 L 73.8,12.43 C 73.8,10.5 73.28,9.53 72.25,9.53 71.2,9.53 70.59,10.5 70.43,12.43 Z M 81.51,19.2 L 81.51,3.95 86.25,3.95 C 88.83,3.95 90.12,5.21 90.12,7.73 90.12,8.67 89.9,9.53 89.46,10.3 89.02,11.07 88.42,11.67 87.66,12.08 L 91.8,19.2 88.59,19.2 85.45,12.96 83.99,12.96 83.99,19.2 81.51,19.2 Z M 83.99,10.87 L 84.6,10.87 C 86.51,10.87 87.47,9.94 87.47,8.08 87.47,6.72 86.62,6.04 84.91,6.04 L 83.99,6.04 83.99,10.87 Z M 101.27,18.82 C 100.06,19.24 98.92,19.46 97.84,19.46 96.27,19.46 95.03,18.92 94.12,17.85 93.22,16.78 92.76,15.31 92.76,13.46 92.76,11.71 93.18,10.3 94.01,9.23 94.84,8.16 95.94,7.63 97.3,7.63 98.68,7.63 99.68,8.15 100.32,9.19 100.95,10.24 101.27,11.89 101.27,14.15 L 95.43,14.15 C 95.61,16.31 96.59,17.38 98.39,17.38 99.24,17.38 100.2,17.15 101.27,16.67 L 101.27,18.82 Z M 95.4,12.43 L 98.77,12.43 C 98.77,10.5 98.26,9.53 97.22,9.53 96.17,9.53 95.57,10.5 95.4,12.43 Z M 108.49,17.98 C 107.65,18.96 106.74,19.46 105.78,19.46 104.96,19.46 104.29,19.15 103.78,18.55 103.26,17.94 103.01,17.16 103.01,16.2 103.01,14.95 103.42,13.99 104.25,13.31 105.08,12.63 106.27,12.29 107.82,12.29 L 108.49,12.29 108.49,11.26 C 108.49,10.09 107.94,9.5 106.82,9.5 105.84,9.5 104.84,9.84 103.83,10.51 L 103.83,8.41 C 104.97,7.89 106.11,7.63 107.24,7.63 109.7,7.63 110.93,8.81 110.93,11.16 L 110.93,16.17 C 110.93,17.05 111.16,17.5 111.64,17.5 111.72,17.5 111.83,17.48 111.97,17.46 L 112.03,19.17 C 111.5,19.36 111.02,19.46 110.61,19.46 109.57,19.46 108.9,18.96 108.61,17.98 L 108.49,17.98 Z M 108.49,16.34 L 108.49,14.05 107.9,14.05 C 106.26,14.05 105.44,14.66 105.44,15.9 105.44,16.32 105.56,16.67 105.79,16.96 106.03,17.24 106.32,17.38 106.67,17.38 107.26,17.38 107.87,17.04 108.49,16.34 Z M 120.12,19.2 L 120.12,17.07 C 119.47,18.66 118.44,19.46 117.04,19.46 115.91,19.46 115.02,18.96 114.38,17.96 113.73,16.97 113.41,15.6 113.41,13.85 113.41,11.95 113.77,10.44 114.5,9.32 115.23,8.19 116.21,7.63 117.44,7.63 118.42,7.63 119.31,8.09 120.12,9.03 L 120.12,2.93 122.66,2.93 122.66,19.2 120.12,19.2 Z M 120.12,10.84 C 119.51,10.02 118.85,9.61 118.16,9.61 117.53,9.61 117.04,9.97 116.66,10.69 116.29,11.41 116.11,12.38 116.11,13.59 116.11,15.91 116.72,17.07 117.96,17.07 118.71,17.07 119.43,16.48 120.12,15.32 L 120.12,10.84 Z M 133.48,18.82 C 132.27,19.24 131.13,19.46 130.05,19.46 128.48,19.46 127.24,18.92 126.33,17.85 125.43,16.78 124.97,15.31 124.97,13.46 124.97,11.71 125.39,10.3 126.22,9.23 127.05,8.16 128.15,7.63 129.51,7.63 130.89,7.63 131.89,8.15 132.53,9.19 133.16,10.24 133.48,11.89 133.48,14.15 L 127.64,14.15 C 127.82,16.31 128.8,17.38 130.6,17.38 131.45,17.38 132.41,17.15 133.48,16.67 L 133.48,18.82 Z M 127.61,12.43 L 130.98,12.43 C 130.98,10.5 130.47,9.53 129.43,9.53 128.38,9.53 127.78,10.5 127.61,12.43 Z M 136.1,19.2 L 136.1,7.89 138.63,7.89 138.63,10.02 C 139.29,8.42 140.29,7.63 141.63,7.63 141.79,7.63 141.95,7.65 142.1,7.69 L 142.1,10.41 C 141.74,10.25 141.41,10.17 141.1,10.17 140.09,10.17 139.27,10.79 138.63,12.02 L 138.63,19.2 136.1,19.2 Z M 136.1,19.2" />
    <rect id="dNavLogo-rectangle" stroke="none" fill="rgb(41, 128, 185)" x="0.82" y="1.28" width="23" height="23" rx="5" />
    <path id="dNavLogo-text" stroke="rgb(251, 250, 253)" stroke-width="0" stroke-miterlimit="10" fill="rgb(251, 250, 253)" d="M 7.06,19.24 L 7.06,5.98 13.02,5.98 C 15.17,5.98 16.81,6.53 17.95,7.62 19.1,8.71 19.67,10.28 19.67,12.33 19.67,14.52 19.06,16.22 17.85,17.43 16.64,18.64 14.95,19.24 12.77,19.24 L 7.06,19.24 Z M 9.94,17.36 L 12.1,17.36 C 13.61,17.36 14.74,16.96 15.49,16.15 16.23,15.35 16.61,14.13 16.61,12.5 16.61,11.23 16.31,10.18 15.71,9.33 15.3,8.75 14.8,8.35 14.22,8.13 13.64,7.91 12.79,7.8 11.68,7.8 L 9.94,7.8 9.94,17.36 Z M 9.94,17.36" />
</svg>
