<?xml version="1.0" encoding="UTF-8"?>
<!DOCTYPE svg PUBLIC "-//W3C//DTD SVG 1.1//EN" "http://www.w3.org/Graphics/SVG/1.1/DTD/svg11.dtd">
<svg version="1.1" xmlns="http://www.w3.org/2000/svg" xmlns:xlink="http://www.w3.org/1999/xlink" width="200" height="200"  xml:space="preserve" id="logoLaunchIcon">
    <!-- Generated by PaintCode (www.paintcodeapp.com) -->
    <defs>
        <linearGradient id="logoLaunchIcon-gradient-oval" x1="99.5" y1="6.5" x2="99.5" y2="192.5" gradientUnits="userSpaceOnUse" >
            <stop offset="0" stop-color="rgb(9, 34, 112)" stop-opacity="1" />
            <stop offset="1" stop-color="rgb(207, 217, 249)" stop-opacity="1" />
        </linearGradient>
    </defs>
    <circle id="logoLaunchIcon-oval" stroke="rgb(14, 54, 179)" stroke-width="5" fill="url(#logoLaunchIcon-gradient-oval)" cx="99.5" cy="99.5" r="93" />
    <path id="logoLaunchIcon-bezier" stroke="rgb(14, 54, 179)" stroke-width="5" stroke-miterlimit="10" fill="rgb(7, 27, 89)" d="M 119.25,65.95 L 109.77,65.95 109.77,96.18 114.65,96.18 C 133.62,96.18 143.1,90.37 143.1,78.77 143.1,70.22 135.15,65.95 119.25,65.95 Z M 88.72,65.95 L 76.74,65.95 C 66.81,65.95 59.37,66.58 54.43,67.83 49.49,69.08 45.24,71.4 41.68,74.79 35.82,80.35 32.88,88 32.88,97.74 32.88,108.12 35.86,116.38 41.82,122.54 47.36,128.32 56.79,131.21 70.09,131.21 L 88.72,131.21 88.72,65.95 Z M 150.46,62.43 C 155.9,65.93 158.62,71.03 158.62,77.71 158.62,88.75 151.46,96.59 137.14,101.21 L 172.63,140 154.09,140 123.85,104.96 109.77,104.96 109.77,140 68.98,140 C 52.63,140 39.95,136.21 30.94,128.64 21.94,121.06 17.44,110.39 17.44,96.62 17.44,85.28 21.06,76.14 28.31,69.2 32.88,64.83 38.3,61.73 44.56,59.91 50.82,58.08 59.03,57.16 69.19,57.16 L 127.01,57.16 C 137.21,57.16 145.03,58.92 150.46,62.43 Z M 150.46,62.43" />
    <path id="logoLaunchIcon-bezier2" stroke="rgb(156, 173, 224)" stroke-width="1.5" stroke-miterlimit="10" fill="rgb(156, 173, 224)" d="M 50,76 L 80.5,76.5" />
    <path id="logoLaunchIcon-bezier3" stroke="rgb(156, 173, 224)" stroke-width="1.5" stroke-miterlimit="10" fill="rgb(156, 173, 224)" d="M 43,83 L 80.5,83.5" />
    <path id="logoLaunchIcon-bezier4" stroke="rgb(156, 173, 224)" stroke-width="1.5" stroke-miterlimit="10" fill="rgb(207, 217, 249)" d="M 41,90 L 80.5,90.5" />
    <path id="logoLaunchIcon-bezier5" stroke="rgb(156, 173, 224)" stroke-width="1.5" stroke-miterlimit="10" fill="rgb(207, 217, 249)" d="M 39,97 L 80.5,97.5" />
    <path id="logoLaunchIcon-bezier6" stroke="rgb(156, 173, 224)" stroke-width="1.5" stroke-miterlimit="10" fill="rgb(207, 217, 249)" d="M 40,105 L 80.5,105.5" />
    <path id="logoLaunchIcon-bezier7" stroke="rgb(156, 173, 224)" stroke-width="1.5" stroke-miterlimit="10" fill="rgb(207, 217, 249)" d="M 43,111.5 L 80.5,112" />
    <path id="logoLaunchIcon-bezier8" stroke="rgb(156, 173, 224)" stroke-width="1.5" stroke-miterlimit="10" fill="rgb(207, 217, 249)" d="M 47.5,119 L 80.5,119" />
</svg>
